<svg width="79" height="85" viewBox="0 0 79 85" fill="none" xmlns="http://www.w3.org/2000/svg">
<g clip-path="url(#clip0)">
<path d="M49.4897 64.0072L62.0988 82.822L64.298 70.9701L77.4935 73.4887L65.9108 56.3035" stroke="white" stroke-width="2" stroke-miterlimit="10" stroke-linecap="round" stroke-linejoin="round"/>
<path d="M30.4295 64.0071L17.8205 82.822L15.6213 70.9701L2.42578 73.4886L15.1814 54.2294" stroke="white" stroke-width="2" stroke-miterlimit="10" stroke-linecap="round" stroke-linejoin="round"/>
<path d="M50.516 28.0072L37.6138 40.8961L32.189 35.5628" stroke="#46721F" stroke-width="2" stroke-miterlimit="10" stroke-linecap="round" stroke-linejoin="round"/>
<path d="M72.9488 34.5257C72.9488 38.6739 68.8435 42.0813 67.2308 45.785C65.618 49.6368 66.2044 54.822 63.4187 57.785C60.633 60.5998 55.3548 60.1554 51.5428 61.6368C47.8774 63.1183 44.6518 67.4146 40.3999 67.4146C36.2947 67.4146 32.9225 63.2665 29.2571 61.6368C25.4451 60.0072 20.3135 60.5998 17.3811 57.785C14.5954 54.9702 15.0353 49.6368 13.5691 45.785C12.103 42.0813 7.85107 38.822 7.85107 34.5257C7.85107 30.3776 11.9563 26.9702 13.5691 23.2665C15.1819 19.4146 14.5954 14.2294 17.3811 11.2665C20.1669 8.45166 25.4451 8.8961 29.2571 7.41462C32.9225 5.93314 36.1481 1.63684 40.3999 1.63684C44.5052 1.63684 47.8774 5.78499 51.5428 7.41462C55.3548 9.04425 60.4864 8.45166 63.4187 11.2665C66.2044 14.0813 65.7646 19.4146 67.2308 23.2665C68.6969 26.9702 72.9488 30.3776 72.9488 34.5257Z" stroke="#46721F" stroke-width="2" stroke-miterlimit="10" stroke-linecap="round" stroke-linejoin="round"/>
<path d="M40.3995 56.0072C52.1408 56.0072 61.6589 46.3896 61.6589 34.5257C61.6589 22.6618 52.1408 13.0442 40.3995 13.0442C28.6583 13.0442 19.1401 22.6618 19.1401 34.5257C19.1401 46.3896 28.6583 56.0072 40.3995 56.0072Z" stroke="white" stroke-width="2" stroke-miterlimit="10" stroke-linecap="round" stroke-linejoin="round"/>
</g>
<defs>
<clipPath id="clip0">
<rect width="78" height="84" fill="white" transform="translate(0.959961 0.303467)"/>
</clipPath>
</defs>
</svg>
