<svg width="70" height="83" viewBox="0 0 70 83" fill="none" xmlns="http://www.w3.org/2000/svg">
<path d="M35.0839 80.3198C67.3651 62.9296 67.5908 45.3165 67.5908 45.3165V11.6509C50.4344 13.2116 35.3097 2.28699 35.3097 2.28699C35.3097 2.28699 19.9592 13.2116 2.80273 11.6509V45.3165C2.80273 45.3165 3.02848 62.9296 35.0839 80.3198Z" stroke="white" stroke-width="2.4" stroke-miterlimit="10" stroke-linecap="square" stroke-linejoin="round"/>
<path d="M67.5916 17.2247L35.5361 48.6608L22.2173 35.7296" stroke="white" stroke-width="2.4" stroke-miterlimit="10" stroke-linecap="round" stroke-linejoin="round"/>
<path d="M35.0839 80.3198C67.3651 62.9296 67.5908 45.3165 67.5908 45.3165V11.6509C50.4344 13.2116 35.3097 2.28699 35.3097 2.28699C35.3097 2.28699 19.9592 13.2116 2.80273 11.6509V45.3165C2.80273 45.3165 3.02848 62.9296 35.0839 80.3198Z" stroke="white" stroke-width="2.4" stroke-miterlimit="10" stroke-linecap="square" stroke-linejoin="round"/>
<path d="M35.0844 14.3264C35.0844 14.3264 24.4745 21.9067 12.7358 20.792V44.2018C12.7358 44.2018 12.7358 56.4641 35.0844 68.5035" stroke="#46721F" stroke-width="2.4" stroke-miterlimit="10" stroke-linecap="round" stroke-linejoin="round"/>
</svg>
