<svg width="88" height="56" viewBox="0 0 88 56" fill="none" xmlns="http://www.w3.org/2000/svg">
<g clip-path="url(#clip0)">
<path d="M38.4863 50.0489L41.637 53.1554C43.3335 54.8281 45.9994 54.8281 47.5747 53.1554C49.2712 51.4827 49.2712 48.8541 47.5747 47.3009L45.1511 44.9113" stroke="#46721F" stroke-width="2.4" stroke-miterlimit="10" stroke-linecap="round" stroke-linejoin="round"/>
<path d="M43.9393 5.2438C43.9393 5.2438 38.1228 0.345095 32.3062 3.92951L29.7615 5.96068C29.7615 5.96068 25.8838 9.66458 14.4931 2.01782L2.01172 15.997L13.0389 26.7503" stroke="#46721F" stroke-width="2.4" stroke-miterlimit="10" stroke-linecap="round" stroke-linejoin="round"/>
<path d="M44.9087 4.64639C44.9087 4.64639 49.7558 0.345095 55.5724 3.92951L58.1171 5.96068C58.1171 5.96068 61.9948 9.66458 73.3856 2.01782L85.8669 16.1165L69.2655 32.1269" stroke="#F2F4F7" stroke-width="2.4" stroke-miterlimit="10" stroke-linecap="round" stroke-linejoin="round"/>
<path d="M8.55509 37.1451C6.85859 35.4724 6.85859 32.8438 8.55509 31.2906L15.8258 24.1217C17.5223 22.449 20.1882 22.449 21.7635 24.1217C23.46 25.7945 23.46 28.423 21.7635 29.9763L14.4928 37.1451C12.9175 38.6984 10.2516 38.6984 8.55509 37.1451Z" stroke="#F2F4F7" stroke-width="2.4" stroke-miterlimit="10" stroke-linecap="round" stroke-linejoin="round"/>
<path d="M21.2787 49.3321C19.5822 47.6594 19.5822 45.0308 21.2787 43.4776L28.5494 36.3087C30.2459 34.636 32.9118 34.636 34.4871 36.3087C36.1836 37.9815 36.1836 40.61 34.4871 42.1633L27.2164 49.3321C25.6411 50.8854 22.854 50.8854 21.2787 49.3321Z" stroke="#F2F4F7" stroke-width="2.4" stroke-miterlimit="10" stroke-linecap="round" stroke-linejoin="round"/>
<path d="M29.0341 53.5139C27.3376 51.8412 27.3376 49.2126 29.0341 47.6594L34.4871 42.2827C36.1836 40.61 38.8495 40.61 40.4248 42.2827C42.1213 43.9555 42.1213 46.584 40.4248 48.1373L34.9718 53.5139C33.2753 55.0672 30.6094 55.0672 29.0341 53.5139Z" stroke="#F2F4F7" stroke-width="2.4" stroke-miterlimit="10" stroke-linecap="round" stroke-linejoin="round"/>
<path d="M13.1601 45.0307C11.3425 43.2385 11.3425 40.371 13.1601 38.6982L21.7638 30.2151C23.5814 28.4229 26.4897 28.4229 28.1862 30.2151C30.0039 32.0073 30.0039 34.8749 28.1862 36.5476L19.5826 45.0307C17.8861 46.7034 14.9778 46.7034 13.1601 45.0307Z" stroke="#F2F4F7" stroke-width="2.4" stroke-miterlimit="10" stroke-linecap="round" stroke-linejoin="round"/>
<path d="M52.1792 27.1086L64.9029 39.6541C66.5994 41.3268 69.2654 41.3268 70.8407 39.6541C72.5372 37.9814 72.5372 35.3528 70.8407 33.7995L50.7251 14.3242" stroke="#46721F" stroke-width="2.4" stroke-miterlimit="10" stroke-linecap="round" stroke-linejoin="round"/>
<path d="M45.1509 44.7918L49.3921 48.9737C51.0886 50.6464 53.7545 50.6464 55.3298 48.9737C57.0263 47.3009 57.0263 44.6724 55.3298 43.1191L47.3321 35.2334" stroke="#46721F" stroke-width="2.4" stroke-miterlimit="10" stroke-linecap="round" stroke-linejoin="round"/>
<path d="M48.4229 36.1892L57.0265 44.6723C58.8442 46.4645 61.7524 46.4645 63.4489 44.6723C65.2666 42.8801 65.2666 40.0125 63.4489 38.3398L53.27 28.184" stroke="#46721F" stroke-width="2.4" stroke-miterlimit="10" stroke-linecap="round" stroke-linejoin="round"/>
<path d="M60.7829 24.0021L50.7251 14.3242L42.9697 17.4307" stroke="#F2F4F7" stroke-width="2.4" stroke-miterlimit="10" stroke-linecap="round" stroke-linejoin="round"/>
<path d="M45.1512 4.52686L37.6382 9.30608" stroke="#F2F4F7" stroke-width="2.4" stroke-miterlimit="10" stroke-linecap="round" stroke-linejoin="round"/>
<path d="M43.0909 17.4307C42.485 17.7891 41.7579 17.9086 40.9097 17.9086C38.1226 17.9086 35.9414 15.758 35.9414 13.0099C35.9414 11.5762 36.5473 10.2619 37.6379 9.30603" stroke="#F2F4F7" stroke-width="2.4" stroke-miterlimit="10" stroke-linecap="round" stroke-linejoin="round"/>
</g>
<defs>
<clipPath id="clip0">
<rect width="86.4" height="55.2" fill="white" transform="translate(0.799805 0.703491)"/>
</clipPath>
</defs>
</svg>
