<svg width="82" height="81" viewBox="0 0 82 81" fill="none" xmlns="http://www.w3.org/2000/svg">
<g clip-path="url(#clip0)">
<path d="M15.2495 52.6683L24.9984 49.2056C25.6002 48.9668 26.6834 48.9668 27.2852 49.0862L29.8127 49.6833C30.4144 49.8027 31.3773 50.2803 31.8587 50.7579L35.2287 53.743C35.7101 54.2206 36.673 54.5788 37.2748 54.6982L42.8112 55.1758C43.4129 55.1758 44.4962 55.2952 45.2183 55.4146L48.5883 55.7728C49.1901 55.7728 50.2733 56.131 50.8751 56.4892L52.0786 57.2056C52.6804 57.5639 53.2822 58.2803 53.5229 58.8773L54.4858 61.8624C54.7265 62.4594 55.3283 62.937 56.0504 62.6982L72.9003 59.1161C73.5021 58.9967 74.5853 58.9967 75.1871 59.1161L77.2332 59.5937C77.8349 59.7131 78.6774 60.3101 78.9181 60.9071L80.0014 63.0564C80.3624 63.6534 80.3624 64.6086 80.0014 65.2056L79.7606 65.5639C79.3996 66.1609 78.6774 66.7579 78.0757 66.9967L51.2361 76.9071C50.6343 77.1459 49.5511 77.3847 48.9494 77.3847L46.3015 77.6236C45.6997 77.6236 44.6165 77.6236 43.8944 77.3847L15.0088 69.3847" stroke="white" stroke-width="2.4" stroke-miterlimit="10" stroke-linecap="round" stroke-linejoin="round"/>
<path d="M29.2114 61.7432L44.0153 65.5641C44.6171 65.6835 45.7003 65.6835 46.3021 65.5641L55.6899 62.6984" stroke="white" stroke-width="2.4" stroke-miterlimit="10" stroke-linecap="round" stroke-linejoin="round"/>
<path d="M13.9625 77.6236C13.9625 78.2206 13.481 78.8176 12.7589 78.8176H4.09321C3.49143 78.8176 2.88965 78.2206 2.88965 77.6236V43.4743C2.88965 42.8773 3.49143 42.2803 4.09321 42.2803H12.7589C13.481 42.2803 13.9625 42.8773 13.9625 43.4743V77.6236Z" stroke="#46721F" stroke-width="2.4" stroke-miterlimit="10" stroke-linecap="round" stroke-linejoin="round"/>
<path d="M63.6329 6.69824L41.9688 19.2356" stroke="#46721F" stroke-width="2.4" stroke-miterlimit="10" stroke-linecap="round" stroke-linejoin="round"/>
<path d="M52.5601 25.2058V40.7282" stroke="white" stroke-width="2.4" stroke-miterlimit="10" stroke-linecap="round" stroke-linejoin="round"/>
<path d="M31.8589 13.6235L52.4399 25.325" stroke="white" stroke-width="2.4" stroke-miterlimit="10" stroke-linecap="round" stroke-linejoin="round"/>
<path d="M66.2807 17.564L52.5601 25.4446" stroke="white" stroke-width="2.4" stroke-miterlimit="10" stroke-linecap="round" stroke-linejoin="round"/>
<path d="M32.9416 11.7132C31.738 12.4296 30.8955 13.9818 30.8955 15.2953V35.4744C30.8955 36.7878 31.8584 38.4594 32.9416 39.0564L50.5136 49.0863C51.7172 49.6833 53.5225 49.6833 54.7261 49.0863L72.2982 39.0564C73.5017 38.4594 74.3442 36.7878 74.3442 35.4744V15.2953C74.3442 13.9818 73.3814 12.4296 72.2982 11.7132L54.6058 1.68331C53.4022 0.966892 51.5968 0.966892 50.3933 1.68331L32.9416 11.7132Z" stroke="white" stroke-width="2.4" stroke-miterlimit="10" stroke-linecap="round" stroke-linejoin="round"/>
</g>
<defs>
<clipPath id="clip0">
<rect width="81" height="80" fill="white" transform="translate(0.686523 0.0117188)"/>
</clipPath>
</defs>
</svg>
