<svg width="90" height="67" viewBox="0 0 90 67" fill="none" xmlns="http://www.w3.org/2000/svg">
<g clip-path="url(#clip0)">
<path d="M83.3266 34.5039L65.9638 51.1912L59.5332 45.0432" stroke="white" stroke-width="2.4" stroke-miterlimit="10" stroke-linecap="round" stroke-linejoin="round"/>
<path d="M1.78613 56.8373V7.27736C1.78613 4.01518 4.61561 1.25488 7.95954 1.25488H56.4465C59.7905 1.25488 62.6199 4.01518 62.6199 7.27736V11.9197" stroke="white" stroke-width="2.4" stroke-miterlimit="10" stroke-linecap="round" stroke-linejoin="round"/>
<path d="M57.0896 62.8599H8.34538C4.87284 62.8599 1.78613 60.225 1.78613 56.8374" stroke="white" stroke-width="2.4" stroke-miterlimit="10" stroke-linecap="round" stroke-linejoin="round"/>
<path d="M8.34521 12.0452H10.403H66.6068C69.9507 12.0452 72.7802 14.8055 72.7802 18.0676V26.7249" stroke="white" stroke-width="2.4" stroke-miterlimit="10" stroke-linecap="round" stroke-linejoin="round"/>
<path d="M7.95954 12.0451C4.61561 12.0451 1.78613 9.53578 1.78613 6.65001C1.78613 3.76425 4.61561 1.25488 7.95954 1.25488" stroke="white" stroke-width="2.4" stroke-miterlimit="10" stroke-linecap="round" stroke-linejoin="round"/>
<path d="M2.17188 51.0657H48.6011" stroke="white" stroke-width="2.4" stroke-miterlimit="10" stroke-linecap="round" stroke-linejoin="round"/>
<path d="M68.1505 65.7457C79.2313 65.7457 88.2141 56.9825 88.2141 46.1726C88.2141 35.3628 79.2313 26.5996 68.1505 26.5996C57.0697 26.5996 48.0869 35.3628 48.0869 46.1726C48.0869 56.9825 57.0697 65.7457 68.1505 65.7457Z" stroke="#46721F" stroke-width="2.4" stroke-miterlimit="10" stroke-linecap="round" stroke-linejoin="round"/>
</g>
<defs>
<clipPath id="clip0">
<rect width="89" height="67" fill="white" transform="translate(0.5 0.000244141)"/>
</clipPath>
</defs>
</svg>
