<svg width="81" height="82" viewBox="0 0 81 82" fill="none" xmlns="http://www.w3.org/2000/svg">
<path d="M28.9696 54.3333L41.1727 65.8863L34.2337 73.1954L23.4663 59.7561" stroke="#46721F" stroke-width="2.4" stroke-miterlimit="10" stroke-linecap="round" stroke-linejoin="round"/>
<path d="M53.3749 54.3333L41.1719 65.6506L48.1109 73.1954L58.8782 60.3561" stroke="#46721F" stroke-width="2.4" stroke-miterlimit="10" stroke-linecap="round" stroke-linejoin="round"/>
<path d="M30.166 49.6177C29.9267 50.7966 29.2089 51.7397 28.9696 52.9186C28.9696 53.6259 27.7733 53.8617 27.2947 54.3332C26.8162 54.569 24.6627 55.2763 24.4234 55.7479C23.9449 56.691 23.7056 57.6341 23.4663 58.5772C23.227 58.813 22.9878 59.2845 22.7485 59.5203C19.3986 61.4065 16.0488 63.057 12.6989 64.9432C9.82763 66.3579 7.1956 67.7725 4.3243 69.423C3.3672 69.8945 3.12793 70.3661 3.12793 71.5449C3.12793 73.6669 3.12793 75.5532 3.12793 77.6751C3.12793 78.6183 3.3672 79.3256 4.3243 79.7971H77.3032C78.2603 79.3256 78.4995 78.6183 78.4995 77.6751C78.4995 75.5532 78.4995 73.6669 78.4995 71.5449C78.4995 70.6018 78.021 69.8945 77.0639 69.423C73.2355 67.5367 69.4071 65.4147 65.5787 63.5285C63.1859 62.3496 60.7932 61.1708 58.4004 59.7561C58.1612 59.5203 57.6826 59.2845 57.6826 58.813C57.2041 57.8699 56.9648 56.9268 56.7255 55.9837C56.4862 55.2763 56.0077 54.8048 55.5291 54.569C55.0506 54.3332 52.8971 53.8617 52.8971 53.3901C52.8971 52.447 52.4186 51.5039 51.94 50.5608" stroke="white" stroke-width="2.4" stroke-miterlimit="10" stroke-linecap="round" stroke-linejoin="round"/>
<path d="M59.3575 27.2188H62.7073C63.6644 27.2188 64.3822 27.9261 64.3822 28.8692V38.5361C64.3822 39.4792 63.6644 40.1865 62.7073 40.1865H60.5538C59.5967 40.1865 58.8789 39.4792 58.8789 38.5361V34.5278" stroke="#46721F" stroke-width="2.4" stroke-miterlimit="10" stroke-linecap="round" stroke-linejoin="round"/>
<path d="M22.7484 27.2188H19.8771C18.92 27.2188 18.2021 27.9261 18.2021 28.8692V38.5361C18.2021 39.4792 18.92 40.1865 19.8771 40.1865H22.0306C22.9877 40.1865 23.7055 39.4792 23.7055 38.5361V35.4709" stroke="#46721F" stroke-width="2.4" stroke-miterlimit="10" stroke-linecap="round" stroke-linejoin="round"/>
<path d="M60.5536 5.05577C60.5536 5.05577 50.504 4.34843 39.2581 2.69799C34.7119 2.46222 32.5584 3.40533 29.9264 5.99887C29.9264 5.99887 17.9627 3.87688 22.5089 24.861C22.5089 24.861 22.7482 33.1132 24.6624 39.9508C27.0551 47.9672 32.7977 54.569 41.1723 54.569C50.2648 54.569 55.2895 48.6745 57.6823 39.9508C58.6394 35.9426 59.1179 31.227 59.1179 26.2757C59.3572 26.2757 64.8605 15.43 60.5536 5.05577Z" stroke="white" stroke-width="2.4" stroke-miterlimit="10" stroke-linecap="round" stroke-linejoin="round"/>
<path d="M59.3576 26.2756C59.3576 26.2756 56.4863 14.7225 27.7733 18.7307C27.7733 18.7307 23.2271 25.0967 22.9878 30.9911" stroke="white" stroke-width="2.4" stroke-miterlimit="10" stroke-linecap="round" stroke-linejoin="round"/>
<path d="M64.382 38.3003C64.382 38.3003 62.2285 53.6258 48.1113 48.6745" stroke="#46721F" stroke-width="2.4" stroke-miterlimit="10" stroke-linecap="round" stroke-linejoin="round"/>
<path d="M45.4788 49.3819C47.461 49.3819 49.0679 47.7985 49.0679 45.8453C49.0679 43.892 47.461 42.3086 45.4788 42.3086C43.4966 42.3086 41.8896 43.892 41.8896 45.8453C41.8896 47.7985 43.4966 49.3819 45.4788 49.3819Z" stroke="#46721F" stroke-width="2.4" stroke-miterlimit="10" stroke-linecap="round" stroke-linejoin="round"/>
</svg>
