<svg width="1920" height="4189" viewBox="0 0 1920 4189" fill="none" xmlns="http://www.w3.org/2000/svg">
<rect width="1920" height="4189" fill="#F2F4F7"/>
<mask id="mask0" mask-type="alpha" maskUnits="userSpaceOnUse" x="0" y="0" width="1920" height="4189">
<rect width="1920" height="4189" fill="#F2F4F7"/>
</mask>
<g mask="url(#mask0)">
<rect width="684.227" height="684.227" transform="matrix(0.71007 -0.704131 0.71007 0.704131 465.958 1814.79)" fill="url(#paint0_linear)" fill-opacity="0.25"/>
<rect width="890.94" height="890.94" transform="matrix(0.71007 -0.704131 0.71007 0.704131 -34.2261 943.339)" fill="url(#paint1_linear)" fill-opacity="0.25"/>
<rect width="695.903" height="695.903" transform="matrix(0.71007 -0.704131 0.71007 0.704131 1014.69 1280.01)" fill="url(#paint2_linear)" fill-opacity="0.8"/>
<rect width="890.94" height="890.94" transform="matrix(0.71007 -0.704131 0.71007 0.704131 -416.423 1942.34)" fill="url(#paint3_linear)" fill-opacity="0.8"/>
<rect width="676.874" height="676.874" transform="matrix(0.71007 -0.704131 0.71007 0.704131 1439 1609.61)" fill="url(#paint4_linear)"/>
<rect width="1058.45" height="1058.45" transform="matrix(0.71007 0.704131 -0.71007 0.704131 -428.429 945.905)" fill="url(#paint5_linear)"/>
<rect opacity="0.5" width="807.367" height="761.622" transform="matrix(0.71007 -0.704131 0.71007 0.704131 -516 2686.49)" fill="url(#paint6_linear)"/>
<rect opacity="0.8" width="807.367" height="761.622" transform="matrix(0.71007 -0.704131 0.71007 0.704131 961 3226.49)" fill="url(#paint7_linear)"/>
<rect width="890.94" height="890.94" transform="matrix(0.71007 -0.704131 0.71007 0.704131 21 3126.34)" fill="url(#paint8_linear)" fill-opacity="0.6"/>
<rect opacity="0.8" width="1270.25" height="1270.25" transform="matrix(-0.71007 -0.704131 0.71007 -0.704131 1333.97 4033.85)" fill="url(#paint9_linear)"/>
<rect width="1058.45" height="1058.45" transform="matrix(0.71007 0.704131 -0.71007 0.704131 1020.57 1413)" fill="url(#paint10_linear)" fill-opacity="0.4"/>
<rect width="1058.45" height="1058.45" transform="matrix(0.71007 0.704131 -0.71007 0.704131 911.571 -413)" fill="url(#paint11_linear)" fill-opacity="0.8"/>
<rect width="1104.7" height="1104.7" transform="matrix(0.71007 0.704131 -0.71007 0.704131 291.415 -481)" fill="url(#paint12_linear)" fill-opacity="0.6"/>
<rect opacity="0.4" width="807.367" height="761.622" transform="matrix(0.71007 -0.704131 0.71007 0.704131 -313.601 3760.59)" fill="url(#paint13_linear)"/>
<rect opacity="0.5" width="1345.2" height="1268.99" transform="matrix(0.71007 -0.704131 0.71007 0.704131 1219 2850.2)" fill="url(#paint14_linear)"/>
<rect opacity="0.5" width="1027.95" height="969.709" transform="matrix(0.71007 -0.704131 0.71007 0.704131 656 3900.81)" fill="url(#paint15_linear)"/>
<rect opacity="0.25" width="1134.87" height="1134.87" transform="matrix(-0.71007 -0.704131 0.71007 -0.704131 2326.83 1443.19)" fill="url(#paint16_linear)"/>
<rect width="754.391" height="754.391" transform="matrix(0.71007 -0.704131 0.71007 0.704131 -797.994 1235.19)" fill="url(#paint17_linear)" fill-opacity="0.6"/>
<rect width="754.391" height="754.391" transform="matrix(-0.71007 -0.704131 -0.71007 0.704131 1024.34 147.192)" fill="url(#paint18_linear)" fill-opacity="0.8"/>
<rect width="914.471" height="914.471" transform="matrix(0.707107 -0.707107 -0.701143 -0.713021 -63.1846 826.668)" fill="url(#paint19_linear)"/>
<rect width="668.371" height="668.371" transform="matrix(-0.71007 -0.704131 -0.71007 0.704131 1877.18 690.622)" fill="url(#paint20_linear)" fill-opacity="0.8"/>
<rect width="695.202" height="695.202" transform="matrix(0.71007 -0.704131 0.71007 0.704131 168.73 659.865)" fill="url(#paint21_linear)" fill-opacity="0.4"/>
</g>
<defs>
<linearGradient id="paint0_linear" x1="-121.224" y1="-86.8343" x2="342.113" y2="684.227" gradientUnits="userSpaceOnUse">
<stop stop-color="white" stop-opacity="0"/>
<stop offset="1" stop-color="white"/>
</linearGradient>
<linearGradient id="paint1_linear" x1="196.915" y1="351.237" x2="1217.12" y2="1030.64" gradientUnits="userSpaceOnUse">
<stop stop-color="white" stop-opacity="0"/>
<stop offset="1" stop-color="#9EB8C7"/>
</linearGradient>
<linearGradient id="paint2_linear" x1="-321.6" y1="127.168" x2="1174.22" y2="645.016" gradientUnits="userSpaceOnUse">
<stop stop-color="white" stop-opacity="0"/>
<stop offset="1" stop-color="white"/>
</linearGradient>
<linearGradient id="paint3_linear" x1="79.3729" y1="254.992" x2="422.329" y2="996.212" gradientUnits="userSpaceOnUse">
<stop stop-color="white" stop-opacity="0"/>
<stop offset="1" stop-color="#E2E7EA"/>
</linearGradient>
<linearGradient id="paint4_linear" x1="38.4878" y1="11.6699" x2="356.264" y2="470.686" gradientUnits="userSpaceOnUse">
<stop stop-color="white" stop-opacity="0"/>
<stop offset="1" stop-color="#E2E7EA"/>
</linearGradient>
<linearGradient id="paint5_linear" x1="522.867" y1="-140.288" x2="646.906" y2="936.211" gradientUnits="userSpaceOnUse">
<stop stop-color="white" stop-opacity="0"/>
<stop offset="1" stop-color="white"/>
</linearGradient>
<linearGradient id="paint6_linear" x1="403.683" y1="0" x2="403.683" y2="761.622" gradientUnits="userSpaceOnUse">
<stop stop-color="white" stop-opacity="0"/>
<stop offset="1" stop-color="white"/>
</linearGradient>
<linearGradient id="paint7_linear" x1="403.683" y1="0" x2="409.383" y2="596.15" gradientUnits="userSpaceOnUse">
<stop offset="0.211038" stop-color="white" stop-opacity="0"/>
<stop offset="1" stop-color="white"/>
</linearGradient>
<linearGradient id="paint8_linear" x1="128.057" y1="114.085" x2="445.47" y2="890.94" gradientUnits="userSpaceOnUse">
<stop stop-color="white" stop-opacity="0"/>
<stop offset="1" stop-color="white"/>
</linearGradient>
<linearGradient id="paint9_linear" x1="-233.082" y1="-411.895" x2="1091.27" y2="168.719" gradientUnits="userSpaceOnUse">
<stop stop-color="#E1E6E9"/>
<stop offset="1" stop-color="#F2F4F7"/>
</linearGradient>
<linearGradient id="paint10_linear" x1="565.123" y1="-207.235" x2="1161.46" y2="617.878" gradientUnits="userSpaceOnUse">
<stop stop-color="white" stop-opacity="0"/>
<stop offset="0.839475" stop-color="white"/>
</linearGradient>
<linearGradient id="paint11_linear" x1="709.08" y1="-445.635" x2="647.827" y2="1031.96" gradientUnits="userSpaceOnUse">
<stop stop-color="white"/>
<stop offset="1" stop-color="white" stop-opacity="0"/>
</linearGradient>
<linearGradient id="paint12_linear" x1="586.78" y1="-236.969" x2="789.728" y2="1321.08" gradientUnits="userSpaceOnUse">
<stop stop-color="white" stop-opacity="0"/>
<stop offset="1" stop-color="white"/>
</linearGradient>
<linearGradient id="paint13_linear" x1="403.683" y1="0" x2="403.683" y2="761.622" gradientUnits="userSpaceOnUse">
<stop stop-color="white"/>
<stop offset="1" stop-color="white" stop-opacity="0"/>
</linearGradient>
<linearGradient id="paint14_linear" x1="672.602" y1="0" x2="672.602" y2="1268.99" gradientUnits="userSpaceOnUse">
<stop stop-color="white"/>
<stop offset="1" stop-color="white" stop-opacity="0"/>
</linearGradient>
<linearGradient id="paint15_linear" x1="865.28" y1="864.127" x2="802.629" y2="-198.405" gradientUnits="userSpaceOnUse">
<stop stop-color="white"/>
<stop offset="1" stop-color="white" stop-opacity="0"/>
</linearGradient>
<linearGradient id="paint16_linear" x1="-36.7857" y1="-92.1815" x2="971.548" y2="151.362" gradientUnits="userSpaceOnUse">
<stop stop-color="white" stop-opacity="0"/>
<stop offset="1" stop-color="white"/>
</linearGradient>
<linearGradient id="paint17_linear" x1="377.196" y1="0" x2="898.22" y2="1275.8" gradientUnits="userSpaceOnUse">
<stop stop-color="white" stop-opacity="0"/>
<stop offset="1" stop-color="white"/>
</linearGradient>
<linearGradient id="paint18_linear" x1="58.4295" y1="430.959" x2="741.151" y2="771.779" gradientUnits="userSpaceOnUse">
<stop stop-color="white" stop-opacity="0"/>
<stop offset="1" stop-color="white"/>
</linearGradient>
<linearGradient id="paint19_linear" x1="70.8281" y1="522.407" x2="898.422" y2="935.549" gradientUnits="userSpaceOnUse">
<stop stop-color="white" stop-opacity="0"/>
<stop offset="0.782555" stop-color="#E2E7EA"/>
</linearGradient>
<linearGradient id="paint20_linear" x1="18.5318" y1="-421.647" x2="656.048" y2="678.3" gradientUnits="userSpaceOnUse">
<stop stop-color="#E2E7EA"/>
<stop offset="1" stop-color="white" stop-opacity="0"/>
</linearGradient>
<linearGradient id="paint21_linear" x1="-259.298" y1="342.968" x2="603.807" y2="1100.59" gradientUnits="userSpaceOnUse">
<stop stop-color="white" stop-opacity="0"/>
<stop offset="0.763337" stop-color="#DEE3E6"/>
</linearGradient>
</defs>
</svg>
