<svg width="102" height="104" viewBox="0 0 102 104" fill="none" xmlns="http://www.w3.org/2000/svg">
<g clip-path="url(#clip0)">
<path d="M88.8857 102.596H0.728516V15.238H88.8857V102.596Z" fill="#508725"/>
<path d="M88.8857 102.596V101.874H1.21429V15.9601H88.1571V102.596H88.8857V101.874V102.596H89.3714V14.7568H0V103.077H89.3714V102.596H88.8857Z" fill="black"/>
<path d="M88.8857 102.596H0.728516V15.238H88.8857V102.596Z" fill="#5F9D2F"/>
<path d="M88.8857 15.238H16.0285L20.8857 20.0511V29.196L11.4142 17.6446L0.971373 30.6399V21.9764L6.07137 15.238H0.728516V65.7754C3.6428 59.5184 24.0428 21.7357 88.8857 21.2544V15.238Z" fill="#7CB93F"/>
<path d="M15.3 14.7568L16.5143 15.9601H88.1571V101.874H1.21429V30.3994V21.7358V15.9601H5.82857L6.55714 14.7568H0V103.077H89.3714V14.7568H15.3Z" fill="#213139"/>
<path d="M64.3574 51.8174V61.2029C64.3574 61.2029 90.1003 84.787 92.7717 96.3384C95.4431 107.89 94.7146 98.745 94.7146 98.745L101.515 94.4132C101.515 94.4132 102.729 78.2893 64.3574 51.8174Z" fill="white"/>
<path d="M94.2284 102.596C93.7427 102.596 93.257 101.874 92.0427 96.3387C89.3713 85.2686 64.1141 61.6845 63.8713 61.4439L63.6284 61.2032V50.3738L64.5998 51.0957C102.971 77.5677 102 93.9322 102 94.6541V94.8948L95.1998 98.9859C95.4427 102.596 94.957 102.596 94.2284 102.596C94.4713 102.596 94.4713 102.596 94.2284 102.596ZM64.8427 60.9626C67.5141 63.3691 90.5856 85.028 93.257 96.0981C93.4998 97.3013 93.7427 98.0233 93.9856 98.7453V98.264L100.786 93.9322C100.786 91.7663 98.8427 76.3644 64.8427 52.7803V60.9626Z" fill="#213139"/>
<path d="M21.857 43.6353L20.3999 53.0208C20.3999 53.0208 51.9713 105.243 97.1428 103.558C100.057 98.9857 101.514 94.4133 101.514 94.4133C101.514 94.4133 77.2285 106.687 34.2428 60.9624C30.1142 56.6306 25.7428 49.6516 21.857 43.6353Z" fill="#213139"/>
<path d="M41.7718 21.7356H27.6861L25.7432 23.1795V26.0674L29.1432 27.752V49.8921L28.9003 52.78L7.52892 86.2309L6.55749 88.3968L6.07178 90.8034L7.04321 93.9319L8.7432 95.6164L15.3003 96.3384H24.0432L21.6146 94.6538L20.1575 91.044L21.1289 87.4342L27.9289 76.6048L35.9432 65.0534L43.2289 52.78V32.3244V27.5113L41.7718 27.2706L40.0718 26.308L39.8289 23.9015L41.7718 21.7356Z" fill="#83BE57"/>
<path d="M24.7714 95.6165C23.0714 95.1352 21.8571 94.1726 21.3714 92.9693C20.1571 90.3221 21.8571 86.9529 21.8571 86.9529L43.7143 53.0207V52.78V26.7894H42.7429C41.0429 26.7894 40.0714 26.0674 40.0714 24.3828C40.0714 23.1796 41.2857 22.2169 42.5 22.2169H51.4857H60.4714C61.6857 22.2169 62.9 22.9389 62.9 24.3828C62.9 26.0674 61.9286 26.7894 60.2286 26.7894H59.2571V47.245H60.4714V27.9926C62.6571 27.9926 64.1143 26.5487 64.1143 24.3828C64.1143 22.4576 62.4143 21.0137 60.4714 21.0137H51.4857H42.5C40.5571 21.0137 38.8571 22.4576 38.8571 24.3828C38.8571 26.5487 40.3143 27.9926 42.5 27.9926V52.5394L20.8857 86.231C20.8857 86.4716 18.7 90.3221 20.1571 93.4506C20.8857 95.1352 22.3429 96.0978 24.5286 96.8198H71.1571V95.6165H24.7714Z" fill="#213139"/>
<path d="M13.1141 92.9693C11.8998 90.3221 13.8427 86.9529 13.8427 86.9529L35.457 53.0207V52.78V26.7894H34.4855C32.7855 26.7894 31.8141 26.0674 31.8141 24.3828C31.8141 23.1796 33.0284 22.2169 34.2427 22.2169H47.1141V21.0137H34.2427C32.2998 21.0137 30.5998 22.4576 30.5998 24.3828C30.5998 26.5487 32.057 27.9926 34.2427 27.9926V52.5394L12.6284 86.231C12.6284 86.4716 10.4427 90.3221 11.8998 93.4506C12.6284 95.1352 14.0855 96.0978 16.2712 96.8198H62.8998V95.6165H16.5141C14.8141 95.1352 13.5998 94.4132 13.1141 92.9693Z" fill="#213139"/>
<path d="M7.04312 92.9693C5.82884 90.3221 7.77169 86.9529 7.77169 86.9529L29.386 53.0207V52.78V26.7894H28.4145C26.7145 26.7894 25.7431 26.0674 25.7431 24.3828C25.7431 23.1796 26.9574 22.2169 28.1717 22.2169H41.286V21.0137H28.4145C26.4717 21.0137 24.7717 22.4576 24.7717 24.3828C24.7717 26.5487 26.2288 27.9926 28.4145 27.9926V52.5394L6.80026 86.231C6.80026 86.4716 4.61455 90.3221 6.07169 93.4506C6.80027 95.1352 8.25741 96.0978 10.4431 96.8198H57.0717V95.6165H10.686C8.98598 95.1352 7.77169 94.4132 7.04312 92.9693Z" fill="#213139"/>
<path d="M54.3997 49.8923H29.1426V51.0956H54.3997V49.8923Z" fill="#213139"/>
<path d="M6.79976 14.7568L0.971191 21.9765V30.64L11.414 17.6447L20.8855 29.1961V20.2919L15.2998 14.7568H6.79976Z" fill="#FEFEFF"/>
<path d="M15.7857 14.7568H15.0571L20.6428 20.2919V28.4741L11.6571 17.6447L11.4142 17.404L1.21423 29.9181V21.9765L7.0428 14.7568H6.31423L0.728516 21.9765V31.362L11.4142 18.126L21.1285 29.9181V20.0512L15.7857 14.7568Z" fill="black"/>
<path d="M15.7857 14.7568H14.8142L20.3999 20.5325V28.4741L11.4142 17.1634L1.45709 29.6774V22.2171L7.28566 14.7568H6.31423L0.728516 21.9765V31.8433L11.4142 18.3666L21.1285 30.1587L21.3714 30.3994V20.0512L15.7857 14.7568ZM21.1285 29.6774L11.4142 17.8853L0.971373 31.1213V21.9765L6.55709 14.7568H6.79994L1.21423 21.9765V30.3994L11.4142 17.6447L20.6428 28.7148L20.8857 28.9554V20.2919L15.2999 14.7568H15.5428L21.1285 20.0512V29.6774Z" fill="#213139"/>
<path d="M1.94287 5.61187L8.0143 13.3128H15.3L25.0143 1.52075H17.2429L11.6572 9.22169L5.58573 1.52075L1.94287 5.61187Z" fill="white"/>
<path d="M32.057 12.3503H29.6284V7.29656L28.1712 12.3503H25.7427V1.03955H28.1712V6.09329L29.8713 1.03955H32.2998V12.3503H32.057Z" fill="white"/>
<path d="M42.0142 1.03955V12.3503H39.5856V4.64936L38.6142 12.3503H36.9142L35.9427 4.89002V12.3503H33.5142V1.03955H37.157C37.157 1.76151 37.3999 2.48348 37.3999 3.44609L37.8856 6.33394L38.6142 1.03955H42.0142Z" fill="white"/>
<path d="M49.5428 12.3503H47.1142V7.29656L45.6571 12.3503H43.2285V1.03955H45.6571V6.09329L47.3571 1.03955H49.7857V12.3503H49.5428Z" fill="white"/>
<path d="M59.5 1.03955V12.3503H57.0714V4.64936L56.1 12.3503H54.4L53.4286 4.89002V12.3503H51V1.03955H54.6429C54.6429 1.76151 54.8857 2.48348 54.8857 3.44609L55.3714 6.33394L55.8571 1.03955H59.5Z" fill="white"/>
<path d="M67.271 12.3503H64.3567V3.20544H63.3853V12.3503H60.7139V1.03955H67.271V12.3503Z" fill="white"/>
<path d="M75.0427 7.53715C75.0427 8.74042 75.0427 9.46238 75.0427 9.94369C75.0427 10.425 74.7998 10.9063 74.557 11.147C74.3141 11.6283 73.8284 11.8689 73.3427 12.1096C72.857 12.3502 72.3712 12.3502 71.6427 12.3502C71.157 12.3502 70.4284 12.3502 69.9427 12.1096C69.457 11.8689 69.2141 11.6283 68.7284 11.147C68.4855 10.6657 68.2427 10.425 68.2427 9.94369C68.2427 9.46238 68.2427 8.74042 68.2427 7.53715V5.61191C68.2427 4.40864 68.2427 3.68668 68.2427 3.20537C68.2427 2.72406 68.4855 2.24275 68.7284 2.0021C68.9712 1.52079 69.457 1.28014 69.9427 1.03948C70.6712 0.798828 71.157 0.798828 71.6427 0.798828C72.1284 0.798828 72.857 0.798828 73.3427 1.03948C73.8284 1.28014 74.0712 1.52079 74.557 2.0021C74.7998 2.48341 75.0427 2.72406 75.0427 3.20537C75.0427 3.68668 75.0427 4.40864 75.0427 5.61191V7.53715ZM72.1284 3.92733C72.1284 3.44602 72.1284 2.96472 72.1284 2.96472C72.1284 2.72406 71.8855 2.72406 71.8855 2.72406C71.6427 2.72406 71.6427 2.72406 71.6427 2.96472C71.6427 2.96472 71.6427 3.44602 71.6427 3.92733V9.22173C71.6427 9.94369 71.6427 10.1843 71.6427 10.425C71.6427 10.6657 71.8855 10.6657 72.1284 10.6657C72.3712 10.6657 72.3712 10.6657 72.6141 10.425C72.6141 10.1843 72.6141 9.94369 72.6141 9.22173V3.92733H72.1284Z" fill="white"/>
<path d="M76.2568 1.03955H79.1711C79.8997 1.03955 80.6283 1.03955 80.8711 1.28021C81.3568 1.52086 81.5997 1.52086 81.8426 1.76151C82.0854 2.00217 82.0854 2.24282 82.3283 2.72413C82.3283 2.96478 82.3283 3.68675 82.3283 4.40871V5.37133C82.3283 6.09329 82.3283 6.5746 82.0854 7.05591C81.8426 7.29656 81.5997 7.53722 81.3568 7.77787C80.8711 8.01852 80.3854 8.01852 79.8997 8.01852H79.1711V12.591H76.2568V1.03955ZM78.9283 2.96478V5.85263H79.1711C79.414 5.85263 79.6568 5.85264 79.6568 5.61198C79.6568 5.37133 79.8997 5.13067 79.8997 4.89002V3.9274C79.8997 3.44609 79.8997 3.20544 79.6568 3.20544C79.6568 2.96478 79.414 2.96478 78.9283 2.96478Z" fill="white"/>
<path d="M88.8856 1.03955V3.20544H87.1856V12.3503H84.2713V3.20544H82.5713V1.03955H88.8856Z" fill="white"/>
</g>
<defs>
<clipPath id="clip0">
<rect width="102" height="103" fill="white" transform="translate(0 0.798828)"/>
</clipPath>
</defs>
</svg>
