<svg width="130" height="133" viewBox="0 0 130 133" fill="none" xmlns="http://www.w3.org/2000/svg">
<path d="M113.334 131.446H1.84131V18.6448H113.334V131.446Z" fill="#508725"/>
<path d="M113.334 131.446V130.514H2.45564V19.5772H112.413V131.446H113.334V130.514V131.446H113.949V18.0234H0.919922V132.068H113.949V131.446H113.334Z" fill="black"/>
<path d="M113.334 126.446C113.334 129.208 111.096 131.446 108.334 131.446H6.8413C4.07988 131.446 1.84131 129.208 1.84131 126.446V23.6448C1.84131 20.8833 4.07989 18.6448 6.84131 18.6448H108.334C111.096 18.6448 113.334 20.8834 113.334 23.6448V126.446Z" fill="url(#paint0_linear)"/>
<path d="M113.334 18.6448H21.1913L27.3342 24.8597V36.6681L15.3556 21.7523L2.14845 38.5326V27.3457L8.59845 18.6448H1.84131V83.9018C5.52702 75.8223 31.327 27.035 113.334 26.4135V18.6448Z" fill="#7CB93F"/>
<path d="M20.2699 18.0234L21.8056 19.5772H112.413V130.514H2.45564V38.222V27.0351V19.5772H8.29135L9.21278 18.0234H0.919922V132.068H113.949V18.0234H20.2699Z" fill="#213139"/>
<path d="M82.313 65.8787V77.9978C82.313 77.9978 114.87 108.451 118.249 123.367C121.627 138.283 120.706 126.474 120.706 126.474L129.306 120.881C129.306 120.881 130.842 100.061 82.313 65.8787Z" fill="white"/>
<path d="M120.091 131.446C119.477 131.446 118.863 130.514 117.327 123.367C113.948 109.072 82.0054 78.6191 81.6983 78.3083L81.3911 77.9976V64.0139L82.6197 64.9462C131.148 99.1284 129.92 120.259 129.92 121.191V121.502L121.32 126.785C121.627 131.446 121.013 131.446 120.091 131.446C120.398 131.446 120.398 131.446 120.091 131.446ZM82.9268 77.6868C86.3054 80.7943 115.484 108.762 118.863 123.056C119.17 124.61 119.477 125.542 119.784 126.474V125.853L128.384 120.259C128.384 117.463 125.927 97.5747 82.9268 67.1214V77.6868Z" fill="#213139"/>
<path d="M28.5626 55.313L26.7197 67.4322C26.7197 67.4322 66.6483 134.864 123.777 132.689C127.463 126.785 129.305 120.881 129.305 120.881C129.305 120.881 98.5912 136.729 44.2269 77.6868C39.0054 72.0934 33.4769 63.0817 28.5626 55.313Z" fill="url(#paint1_linear)"/>
<path d="M53.7486 27.0352H35.9343L33.4772 28.8996V32.6286L37.7772 34.8038V63.3926L37.4701 67.1216L10.4415 110.316L9.21292 113.112L8.59863 116.22L9.8272 120.259L11.9772 122.435L20.2701 123.367H31.3272L28.2558 121.192L26.4129 116.53L27.6415 111.869L36.2415 97.8856L46.3772 82.9697L55.5915 67.1216V40.7081V34.4931L53.7486 34.1824L51.5986 32.9394L51.2915 29.8319L53.7486 27.0352Z" fill="#83BE57"/>
<path d="M32.2485 122.435C30.0985 121.813 28.5628 120.57 27.9485 119.016C26.4128 115.598 28.5628 111.248 28.5628 111.248L56.2056 67.4322V67.1215V33.5607H54.9771C52.8271 33.5607 51.5985 32.6285 51.5985 30.4533C51.5985 28.8995 53.1342 27.6565 54.6699 27.6565H66.0342H77.3985C78.9342 27.6565 80.4699 28.5888 80.4699 30.4533C80.4699 32.6285 79.2414 33.5607 77.0914 33.5607H75.8628V59.9743H77.3985V35.1145C80.1628 35.1145 82.0056 33.25 82.0056 30.4533C82.0056 27.9673 79.8556 26.1028 77.3985 26.1028H66.0342H54.6699C52.2128 26.1028 50.0628 27.9673 50.0628 30.4533C50.0628 33.25 51.9056 35.1145 54.6699 35.1145V66.8107L27.3342 110.315C27.3342 110.626 24.5699 115.598 26.4128 119.638C27.3342 121.813 29.1771 123.056 31.9414 123.988H90.9128V122.435H32.2485Z" fill="#213139"/>
<path d="M17.5056 119.016C15.9699 115.598 18.4271 111.248 18.4271 111.248L45.7628 67.4322V67.1215V33.5607H44.5342C42.3842 33.5607 41.1556 32.6285 41.1556 30.4533C41.1556 28.8995 42.6913 27.6565 44.2271 27.6565H60.5056V26.1028H44.2271C41.7699 26.1028 39.6199 27.9673 39.6199 30.4533C39.6199 33.25 41.4628 35.1145 44.2271 35.1145V66.8107L16.8913 110.315C16.8913 110.626 14.1271 115.598 15.9699 119.638C16.8913 121.813 18.7342 123.056 21.4985 123.988H80.4699V122.435H21.8056C19.6556 121.813 18.1199 120.881 17.5056 119.016Z" fill="#213139"/>
<path d="M9.8269 119.016C8.29118 115.598 10.7483 111.248 10.7483 111.248L38.084 67.4322V67.1215V33.5607H36.8555C34.7055 33.5607 33.4769 32.6285 33.4769 30.4533C33.4769 28.8995 35.0126 27.6565 36.5483 27.6565H53.134V26.1028H36.8555C34.3983 26.1028 32.2483 27.9673 32.2483 30.4533C32.2483 33.25 34.0912 35.1145 36.8555 35.1145V66.8107L9.51975 110.315C9.51975 110.626 6.75547 115.598 8.59833 119.638C9.51975 121.813 11.3626 123.056 14.1269 123.988H73.0983V122.435H14.434C12.284 121.813 10.7483 120.881 9.8269 119.016Z" fill="#213139"/>
<path d="M69.7197 63.3926H37.7769V64.9463H69.7197V63.3926Z" fill="#213139"/>
<path d="M9.51987 18.0234L2.14844 27.3459V38.5328L15.3556 21.7524L27.3342 36.6683V25.1706L20.2699 18.0234H9.51987Z" fill="#FEFEFF"/>
<path d="M20.8842 18.0234H19.9627L27.027 25.1706V35.7361L15.6627 21.7524L15.3556 21.4417L2.45559 37.6005V27.3459L9.82702 18.0234H8.9056L1.84131 27.3459V39.465L15.3556 22.3739L27.6413 37.6005V24.8599L20.8842 18.0234Z" fill="black"/>
<path d="M20.8842 18.0234H19.6556L26.7199 25.4814V35.7361L15.3556 21.1309L2.76274 37.2898V27.6566L10.1342 18.0234H8.90559L1.84131 27.3459V40.0865L15.3556 22.6847L27.6413 37.9113L27.9484 38.222V24.8599L20.8842 18.0234ZM27.6413 37.2898L15.3556 22.0632L2.14845 39.1543V27.3459L9.21274 18.0234H9.51988L2.45559 27.3459V38.222L15.3556 21.7524L27.027 36.0468L27.3342 36.3575V25.1706L20.2699 18.0234H20.577L27.6413 24.8599V37.2898Z" fill="#213139"/>
<path d="M3.37695 6.21508L11.0555 16.159H20.2698L32.5555 0.932373H22.727L15.6627 10.8763L7.9841 0.932373L3.37695 6.21508Z" fill="white"/>
<path d="M41.4628 14.9162H38.3913V8.39048L36.5485 14.9162H33.4771V0.311035H36.5485V6.83674L38.6985 0.311035H41.7699V14.9162H41.4628Z" fill="white"/>
<path d="M54.0557 0.311035V14.9162H50.9842V4.97225L49.7557 14.9162H47.6057L46.3771 5.283V14.9162H43.3057V0.311035H47.9128C47.9128 1.24328 48.22 2.17552 48.22 3.41851L48.8342 7.14748L49.7557 0.311035H54.0557Z" fill="white"/>
<path d="M63.577 14.9162H60.5056V8.39048L58.6627 14.9162H55.5913V0.311035H58.6627V6.83674L60.8127 0.311035H63.8842V14.9162H63.577Z" fill="white"/>
<path d="M76.1699 0.311035V14.9162H73.0985V4.97225L71.8699 14.9162H69.7199L68.4914 5.283V14.9162H65.4199V0.311035H70.0271C70.0271 1.24328 70.3342 2.17552 70.3342 3.41851L70.9485 7.14748L71.5628 0.311035H76.1699Z" fill="white"/>
<path d="M85.9984 14.9162H82.3127V3.10776H81.0841V14.9162H77.7056V0.311035H85.9984V14.9162Z" fill="white"/>
<path d="M95.827 8.70093C95.827 10.2547 95.827 11.1869 95.827 11.8084C95.827 12.4299 95.5199 13.0514 95.2127 13.3622C94.9056 13.9836 94.2913 14.2944 93.677 14.6051C93.0627 14.9159 92.4485 14.9159 91.527 14.9159C90.9128 14.9159 89.9913 14.9159 89.377 14.6051C88.7628 14.2944 88.4556 13.9836 87.8413 13.3622C87.5342 12.7407 87.2271 12.4299 87.2271 11.8084C87.2271 11.1869 87.2271 10.2547 87.2271 8.70093V6.21495C87.2271 4.66121 87.2271 3.72897 87.2271 3.10748C87.2271 2.48598 87.5342 1.86449 87.8413 1.55374C88.1485 0.932243 88.7628 0.621495 89.377 0.310748C90.2985 0 90.9128 0 91.527 0C92.1413 0 93.0627 0 93.677 0.310748C94.2913 0.621495 94.5985 0.932243 95.2127 1.55374C95.5199 2.17523 95.827 2.48598 95.827 3.10748C95.827 3.72897 95.827 4.66121 95.827 6.21495V8.70093ZM92.1413 4.03972C92.1413 3.41822 92.1413 2.79673 92.1413 2.79673C92.1413 2.48598 91.8342 2.48598 91.8342 2.48598C91.527 2.48598 91.527 2.48598 91.527 2.79673C91.527 2.79673 91.527 3.41822 91.527 4.03972V10.8762C91.527 11.8084 91.527 12.1192 91.527 12.4299C91.527 12.7407 91.8342 12.7407 92.1413 12.7407C92.4485 12.7407 92.4485 12.7407 92.7556 12.4299C92.7556 12.1192 92.7556 11.8084 92.7556 10.8762V4.03972H92.1413Z" fill="white"/>
<path d="M97.3628 0.311035H101.049C101.97 0.311035 102.891 0.311035 103.199 0.621783C103.813 0.93253 104.12 0.93253 104.427 1.24328C104.734 1.55403 104.734 1.86477 105.041 2.48627C105.041 2.79702 105.041 3.72926 105.041 4.6615V5.90449C105.041 6.83674 105.041 7.45823 104.734 8.07973C104.427 8.39047 104.12 8.70122 103.813 9.01197C103.199 9.32272 102.584 9.32272 101.97 9.32272H101.049V15.2269H97.3628V0.311035ZM100.741 2.79702V6.52599H101.049C101.356 6.52599 101.663 6.52599 101.663 6.21524C101.663 5.90449 101.97 5.59374 101.97 5.283V4.04001C101.97 3.41851 101.97 3.10776 101.663 3.10776C101.663 2.79702 101.356 2.79702 100.741 2.79702Z" fill="white"/>
<path d="M113.334 0.311035V3.10776H111.184V14.9162H107.499V3.10776H105.349V0.311035H113.334Z" fill="white"/>
<defs>
<linearGradient id="paint0_linear" x1="133.677" y1="148.2" x2="28.9994" y2="139.882" gradientUnits="userSpaceOnUse">
<stop stop-color="#80BA54"/>
<stop offset="1" stop-color="#5E9336"/>
</linearGradient>
<linearGradient id="paint1_linear" x1="123.416" y1="124.279" x2="35.2817" y2="62.6071" gradientUnits="userSpaceOnUse">
<stop stop-color="#1F3845"/>
<stop offset="1" stop-color="#213139"/>
</linearGradient>
</defs>
</svg>
