<svg width="18" height="13" viewBox="0 0 18 13" fill="none" xmlns="http://www.w3.org/2000/svg">
<g clip-path="url(#clip0)">
<path d="M8.99976 7.23469L16.7957 0.183673C16.5406 0.0714286 16.2549 0 15.9589 0H2.04058C1.68343 0 1.3467 0.102041 1.05078 0.265306L8.99976 7.23469Z" fill="#83BE57"/>
<path d="M18 2.04079C18 1.73466 17.9285 1.44895 17.8061 1.19385L12.5918 5.90813L17.8367 11.7449C17.9387 11.5 18 11.2347 18 10.9489V2.04079Z" fill="#83BE57"/>
<path d="M11.5304 6.86737L9.00997 9.15309L6.44875 6.90819L1.15283 12.7857C1.41814 12.9184 1.72426 13 2.04059 13H15.959C16.2753 13 16.5814 12.9184 16.8467 12.7857L11.5304 6.86737Z" fill="#83BE57"/>
<path d="M0.122449 1.35712C0.0510204 1.5714 0 1.79589 0 2.04079V10.9592C0 11.2449 0.0612245 11.5102 0.163265 11.7551L5.37755 5.96936L0.122449 1.35712Z" fill="#83BE57"/>
</g>
<defs>
<clipPath id="clip0">
<rect width="18" height="13" fill="white"/>
</clipPath>
</defs>
</svg>
