<svg width="56" height="70" viewBox="0 0 56 70" fill="none" xmlns="http://www.w3.org/2000/svg">
<path d="M0 0.288086H39.5662L47.5737 8.29554L55.5811 16.303V70H0V0.288086Z" fill="#213139"/>
<path d="M15.8139 49.1436V45.3516H18.5339C20.8379 45.3516 22.1179 43.7676 22.1179 41.9116C22.1179 40.0396 20.8539 38.4716 18.5339 38.4716H13.5419V49.1436H15.8139ZM18.2299 43.3516H15.8139V40.4716H18.2299C19.1259 40.4716 19.7979 41.0156 19.7979 41.9116C19.7979 42.7916 19.1259 43.3516 18.2299 43.3516ZM27.7342 49.1436C31.0782 49.1436 33.3982 47.0316 33.3982 43.8156C33.3982 40.5996 31.0782 38.4716 27.7342 38.4716H23.5262V49.1436H27.7342ZM27.7342 47.1436H25.7982V40.4716H27.7342C29.9262 40.4716 31.0782 41.9276 31.0782 43.8156C31.0782 45.6236 29.8462 47.1436 27.7342 47.1436ZM37.2826 49.1436V44.7276H42.4506V42.7276H37.2826V40.4716H42.5626V38.4716H35.0106V49.1436H37.2826Z" fill="white"/>
<path d="M39.5657 0.288086L47.1021 7.82451L55.5806 16.303H39.5657V0.288086Z" fill="#83BE57"/>
</svg>
