<svg width="56" height="70" viewBox="0 0 56 70" fill="none" xmlns="http://www.w3.org/2000/svg">
<path d="M0 0.288086H39.5662L47.5737 8.29554L55.5811 16.303V70H0V0.288086Z" fill="#83BE57"/>
<path d="M15.8139 49.1435V45.3515H18.5339C20.8379 45.3515 22.1179 43.7675 22.1179 41.9115C22.1179 40.0395 20.8539 38.4715 18.5339 38.4715H13.5419V49.1435H15.8139ZM18.2299 43.3515H15.8139V40.4715H18.2299C19.1259 40.4715 19.7979 41.0155 19.7979 41.9115C19.7979 42.7915 19.1259 43.3515 18.2299 43.3515ZM27.7342 49.1435C31.0782 49.1435 33.3982 47.0315 33.3982 43.8155C33.3982 40.5995 31.0782 38.4715 27.7342 38.4715H23.5262V49.1435H27.7342ZM27.7342 47.1435H25.7982V40.4715H27.7342C29.9262 40.4715 31.0782 41.9275 31.0782 43.8155C31.0782 45.6235 29.8462 47.1435 27.7342 47.1435ZM37.2826 49.1435V44.7275H42.4506V42.7275H37.2826V40.4715H42.5626V38.4715H35.0106V49.1435H37.2826Z" fill="white"/>
<path d="M39.5654 0.288086L47.1019 7.82451L55.5803 16.303H39.5654V0.288086Z" fill="#71AA47"/>
</svg>
