<svg width="13" height="16" viewBox="0 0 13 16" fill="none" xmlns="http://www.w3.org/2000/svg">
<path d="M12.9201 13.6471V13.4118C12.9201 12.9412 12.4449 12.2353 11.9696 12L10.3063 11.1765C9.831 10.9412 9.11813 10.9412 8.64288 11.1765L7.8112 11.6471C5.55378 10.4706 4.12803 8.11766 4.00922 5.64707L4.8409 5.17649C5.31615 4.82354 5.67259 4.23531 5.67259 3.64707L5.55378 1.76472C5.55378 1.29413 5.19734 0.58825 4.72209 0.352956L4.60328 0.235308C4.12803 1.4361e-05 3.41516 1.4361e-05 2.93991 0.235308L1.7518 0.941191C1.51417 1.05884 1.27655 1.52943 1.27655 1.52943C0.444865 4.7059 1.03892 7.88237 2.70229 10.5883C4.36566 13.2941 7.09833 15.1765 10.1874 15.8824C10.1874 15.8824 10.7815 15.8824 11.0191 15.7647L12.2072 15.0588C12.6825 14.8235 13.0389 14.1177 12.9201 13.6471Z" fill="#83BE57"/>
</svg>
