<svg width="56" height="70" viewBox="0 0 56 70" fill="none" xmlns="http://www.w3.org/2000/svg">
<path d="M0 0.288086H39.5662L47.5737 8.29554L55.5811 16.303V70H0V0.288086Z" fill="#213139"/>
<path d="M24.1984 49.1436L20.3264 43.6556L23.9584 38.4716H21.2224L18.8064 42.1196L16.3584 38.4716H13.6544L17.2864 43.6716L13.4144 49.1436H16.1184L18.8064 45.2396L21.4784 49.1436H24.1984ZM31.9899 49.1436V47.1436H27.4779V38.4716H25.2059V49.1436H31.9899ZM37.3729 49.3356C40.2529 49.3356 41.6449 47.8636 41.6449 45.9116C41.6449 41.9276 35.5169 43.0636 35.5169 41.3676C35.5169 40.7276 36.0609 40.2956 37.0369 40.2956C38.1249 40.2956 39.2769 40.6636 40.1409 41.4636L41.4049 39.7996C40.3489 38.8236 38.9409 38.3116 37.2449 38.3116C34.7329 38.3116 33.1969 39.7836 33.1969 41.5596C33.1969 45.5756 39.3409 44.2796 39.3409 46.1676C39.3409 46.7756 38.7329 47.3516 37.4849 47.3516C36.0129 47.3516 34.8449 46.6956 34.0929 45.9116L32.8609 47.6396C33.8529 48.6476 35.3249 49.3356 37.3729 49.3356Z" fill="white"/>
<path d="M39.5657 0.288086L47.1021 7.82451L55.5806 16.303H39.5657V0.288086Z" fill="#83BE57"/>
</svg>
