<svg width="56" height="70" viewBox="0 0 56 70" fill="none" xmlns="http://www.w3.org/2000/svg">
<path d="M0 0.288086H39.5662L47.5737 8.29554L55.5811 16.303V70H0V0.288086Z" fill="#83BE57"/>
<path d="M15.703 49.1435C19.047 49.1435 21.367 47.0315 21.367 43.8155C21.367 40.5995 19.047 38.4715 15.703 38.4715H11.495V49.1435H15.703ZM15.703 47.1435H13.767V40.4715H15.703C17.895 40.4715 19.047 41.9275 19.047 43.8155C19.047 45.6235 17.815 47.1435 15.703 47.1435ZM28.0354 49.3355C31.2674 49.3355 33.6194 47.0315 33.6194 43.8155C33.6194 40.5995 31.2674 38.2955 28.0354 38.2955C24.8194 38.2955 22.4674 40.5995 22.4674 43.8155C22.4674 47.0315 24.8194 49.3355 28.0354 49.3355ZM28.0354 47.3195C26.0674 47.3195 24.8034 45.7995 24.8034 43.8155C24.8034 41.8155 26.0674 40.3115 28.0354 40.3115C30.0034 40.3115 31.2834 41.8155 31.2834 43.8155C31.2834 45.7995 30.0034 47.3195 28.0354 47.3195ZM40.3817 49.3355C42.7337 49.3355 44.0777 48.0395 44.8457 46.7115L42.8937 45.7675C42.4457 46.6475 41.4857 47.3195 40.3817 47.3195C38.4457 47.3195 37.0377 45.8315 37.0377 43.8155C37.0377 41.7995 38.4457 40.3115 40.3817 40.3115C41.4857 40.3115 42.4457 40.9995 42.8937 41.8635L44.8457 40.9035C44.0937 39.5755 42.7337 38.2955 40.3817 38.2955C37.1817 38.2955 34.7017 40.5355 34.7017 43.8155C34.7017 47.0955 37.1817 49.3355 40.3817 49.3355Z" fill="white"/>
<path d="M39.5654 0.288086L47.1019 7.82451L55.5803 16.303H39.5654V0.288086Z" fill="#71AA47"/>
</svg>
